<?xml version="1.0" encoding="UTF-8"?>
<svg xmlns="http://www.w3.org/2000/svg" id="Layer_1" data-name="Layer 1" viewBox="0 0 512 512" width="512" height="512"><path d="M494.461,131.9,164,112.225V101.219C164,80.87,147.655,64,127.306,64H116V51.081A6.252,6.252,0,0,0,109.79,45h-92A5.9,5.9,0,0,0,12,51.081V88.8A6,6,0,0,0,17.79,95h92A6.361,6.361,0,0,0,116,88.8V76h11.306C141.038,76,152,87.487,152,101.219V359.847a46.162,46.162,0,0,0,35.964,44.859,35.4,35.4,0,1,0,58.525,26.9c0-10.106-4.252-19.607-11.068-25.607H406.058c-6.816,6-11.081,15.5-11.081,25.607a35.389,35.389,0,0,0,70.778.019c0-10.106-4.265-19.626-11.081-25.626h6.172a6,6,0,0,0,0-12H198.21A34.35,34.35,0,0,1,164,359.847V342.858l294.717-25.9A45.8,45.8,0,0,0,500,271.2V137.888A5.911,5.911,0,0,0,494.461,131.9ZM104,83H24V57h80ZM430.366,408.141a23.389,23.389,0,1,1-23.389,23.389A23.415,23.415,0,0,1,430.366,408.141Zm-219.253,0a23.389,23.389,0,1,1-23.389,23.389A23.415,23.415,0,0,1,211.113,408.141ZM204,327.284l-40,3.522V170.25l40,2.386Zm120-10.54-48,4.216V176.922l48,2.857Zm60-5.271-48,4.216v-135.2l48,2.858Zm50-4.392-38,3.338V184.065l38,2.262ZM488,271.2a33.884,33.884,0,0,1-30.492,33.819L446,306.027V187.041l42,2.5Zm0-93.677L262.251,164.044a6.214,6.214,0,0,0-6.3,5.956h.026a6.073,6.073,0,0,0,5.551,6.022l2.475.186V322.014l-48,4.216V173.351l5.539.323a6.044,6.044,0,0,0,6.409-5.989,5.979,5.979,0,0,0-5.617-5.99L164,158.223V124.251l324,19.29Z"/><path d="M199.776,150.693l6.287.328c.106.005.211.008.317.008a6,6,0,0,0,.306-11.992l-6.287-.327a6,6,0,1,0-.623,11.983Z"/><path d="M225.037,152.008l75.9,3.949c.107,0,.212.008.317.008a6,6,0,0,0,.307-11.992l-75.9-3.949a6,6,0,0,0-.623,11.984Z"/></svg>
